<svg xmlns="http://www.w3.org/2000/svg" xmlns:xlink="http://www.w3.org/1999/xlink" width="500" zoomAndPan="magnify" viewBox="0 0 375 374.999991" height="500" preserveAspectRatio="xMidYMid meet" version="1.0"><defs><g/><clipPath id="88a22c42ce"><path d="M 54.710938 21.242188 L 320.289062 21.242188 L 320.289062 286.816406 L 54.710938 286.816406 Z M 54.710938 21.242188 " clip-rule="nonzero"/></clipPath><clipPath id="00619524c5"><path d="M 187.5 21.242188 C 114.164062 21.242188 54.710938 80.691406 54.710938 154.027344 C 54.710938 227.363281 114.164062 286.816406 187.5 286.816406 C 260.835938 286.816406 320.289062 227.363281 320.289062 154.027344 C 320.289062 80.691406 260.835938 21.242188 187.5 21.242188 " clip-rule="nonzero"/></clipPath><clipPath id="9285db1fa9"><path d="M 61.746094 28.273438 L 313.253906 28.273438 L 313.253906 279.785156 L 61.746094 279.785156 Z M 61.746094 28.273438 " clip-rule="nonzero"/></clipPath><clipPath id="839a181a9d"><path d="M 187.5 28.273438 C 118.046875 28.273438 61.746094 84.574219 61.746094 154.027344 C 61.746094 223.480469 118.046875 279.785156 187.5 279.785156 C 256.953125 279.785156 313.253906 223.480469 313.253906 154.027344 C 313.253906 84.574219 256.953125 28.273438 187.5 28.273438 " clip-rule="nonzero"/></clipPath><clipPath id="4fe66b642a"><path d="M 70.050781 36.578125 L 304.949219 36.578125 L 304.949219 271.476562 L 70.050781 271.476562 Z M 70.050781 36.578125 " clip-rule="nonzero"/></clipPath><clipPath id="8cb54673b7"><path d="M 187.5 36.578125 C 122.632812 36.578125 70.050781 89.164062 70.050781 154.027344 C 70.050781 218.894531 122.632812 271.476562 187.5 271.476562 C 252.367188 271.476562 304.949219 218.894531 304.949219 154.027344 C 304.949219 89.164062 252.367188 36.578125 187.5 36.578125 " clip-rule="nonzero"/></clipPath><linearGradient x1="-0.000000936572" gradientTransform="matrix(1.835154, 0, 0, 1.835154, 70.050105, 36.578279)" y1="0" x2="127.999995" gradientUnits="userSpaceOnUse" y2="0" id="a4994407b2"><stop stop-opacity="1" stop-color="rgb(1.998901%, 74.099731%, 65.499878%)" offset="0"/><stop stop-opacity="1" stop-color="rgb(1.991272%, 73.988342%, 65.533447%)" offset="0.0078125"/><stop stop-opacity="1" stop-color="rgb(1.976013%, 73.768616%, 65.600586%)" offset="0.015625"/><stop stop-opacity="1" stop-color="rgb(1.960754%, 73.548889%, 65.667725%)" offset="0.0234375"/><stop stop-opacity="1" stop-color="rgb(1.94397%, 73.327637%, 65.734863%)" offset="0.03125"/><stop stop-opacity="1" stop-color="rgb(1.928711%, 73.10791%, 65.802002%)" offset="0.0390625"/><stop stop-opacity="1" stop-color="rgb(1.913452%, 72.886658%, 65.869141%)" offset="0.046875"/><stop stop-opacity="1" stop-color="rgb(1.898193%, 72.666931%, 65.936279%)" offset="0.0546875"/><stop stop-opacity="1" stop-color="rgb(1.881409%, 72.447205%, 66.003418%)" offset="0.0625"/><stop stop-opacity="1" stop-color="rgb(1.86615%, 72.225952%, 66.070557%)" offset="0.0703125"/><stop stop-opacity="1" stop-color="rgb(1.850891%, 72.006226%, 66.137695%)" offset="0.078125"/><stop stop-opacity="1" stop-color="rgb(1.835632%, 71.784973%, 66.204834%)" offset="0.0859375"/><stop stop-opacity="1" stop-color="rgb(1.818848%, 71.565247%, 66.271973%)" offset="0.09375"/><stop stop-opacity="1" stop-color="rgb(1.803589%, 71.34552%, 66.339111%)" offset="0.101562"/><stop stop-opacity="1" stop-color="rgb(1.78833%, 71.124268%, 66.40625%)" offset="0.109375"/><stop stop-opacity="1" stop-color="rgb(1.773071%, 70.904541%, 66.473389%)" offset="0.117188"/><stop stop-opacity="1" stop-color="rgb(1.756287%, 70.684814%, 66.540527%)" offset="0.125"/><stop stop-opacity="1" stop-color="rgb(1.741028%, 70.463562%, 66.607666%)" offset="0.132812"/><stop stop-opacity="1" stop-color="rgb(1.725769%, 70.243835%, 66.674805%)" offset="0.140625"/><stop stop-opacity="1" stop-color="rgb(1.71051%, 70.022583%, 66.741943%)" offset="0.148437"/><stop stop-opacity="1" stop-color="rgb(1.693726%, 69.802856%, 66.809082%)" offset="0.15625"/><stop stop-opacity="1" stop-color="rgb(1.678467%, 69.58313%, 66.876221%)" offset="0.164062"/><stop stop-opacity="1" stop-color="rgb(1.663208%, 69.361877%, 66.943359%)" offset="0.171875"/><stop stop-opacity="1" stop-color="rgb(1.647949%, 69.142151%, 67.010498%)" offset="0.179687"/><stop stop-opacity="1" stop-color="rgb(1.631165%, 68.920898%, 67.077637%)" offset="0.1875"/><stop stop-opacity="1" stop-color="rgb(1.615906%, 68.701172%, 67.144775%)" offset="0.195312"/><stop stop-opacity="1" stop-color="rgb(1.600647%, 68.481445%, 67.211914%)" offset="0.203125"/><stop stop-opacity="1" stop-color="rgb(1.585388%, 68.260193%, 67.279053%)" offset="0.210937"/><stop stop-opacity="1" stop-color="rgb(1.570129%, 68.040466%, 67.346191%)" offset="0.21875"/><stop stop-opacity="1" stop-color="rgb(1.553345%, 67.82074%, 67.41333%)" offset="0.226562"/><stop stop-opacity="1" stop-color="rgb(1.538086%, 67.599487%, 67.481995%)" offset="0.234375"/><stop stop-opacity="1" stop-color="rgb(1.522827%, 67.379761%, 67.549133%)" offset="0.242188"/><stop stop-opacity="1" stop-color="rgb(1.507568%, 67.158508%, 67.616272%)" offset="0.25"/><stop stop-opacity="1" stop-color="rgb(1.490784%, 66.938782%, 67.683411%)" offset="0.257812"/><stop stop-opacity="1" stop-color="rgb(1.475525%, 66.719055%, 67.750549%)" offset="0.265625"/><stop stop-opacity="1" stop-color="rgb(1.460266%, 66.497803%, 67.817688%)" offset="0.273437"/><stop stop-opacity="1" stop-color="rgb(1.445007%, 66.278076%, 67.884827%)" offset="0.28125"/><stop stop-opacity="1" stop-color="rgb(1.428223%, 66.056824%, 67.951965%)" offset="0.289062"/><stop stop-opacity="1" stop-color="rgb(1.412964%, 65.837097%, 68.019104%)" offset="0.296875"/><stop stop-opacity="1" stop-color="rgb(1.397705%, 65.617371%, 68.086243%)" offset="0.304687"/><stop stop-opacity="1" stop-color="rgb(1.382446%, 65.396118%, 68.153381%)" offset="0.3125"/><stop stop-opacity="1" stop-color="rgb(1.365662%, 65.176392%, 68.22052%)" offset="0.320312"/><stop stop-opacity="1" stop-color="rgb(1.350403%, 64.956665%, 68.287659%)" offset="0.328125"/><stop stop-opacity="1" stop-color="rgb(1.335144%, 64.735413%, 68.354797%)" offset="0.335938"/><stop stop-opacity="1" stop-color="rgb(1.319885%, 64.515686%, 68.421936%)" offset="0.34375"/><stop stop-opacity="1" stop-color="rgb(1.303101%, 64.294434%, 68.489075%)" offset="0.351562"/><stop stop-opacity="1" stop-color="rgb(1.287842%, 64.074707%, 68.556213%)" offset="0.359375"/><stop stop-opacity="1" stop-color="rgb(1.272583%, 63.85498%, 68.623352%)" offset="0.367187"/><stop stop-opacity="1" stop-color="rgb(1.257324%, 63.633728%, 68.690491%)" offset="0.375"/><stop stop-opacity="1" stop-color="rgb(1.24054%, 63.414001%, 68.757629%)" offset="0.382812"/><stop stop-opacity="1" stop-color="rgb(1.225281%, 63.192749%, 68.824768%)" offset="0.390625"/><stop stop-opacity="1" stop-color="rgb(1.210022%, 62.973022%, 68.891907%)" offset="0.398437"/><stop stop-opacity="1" stop-color="rgb(1.194763%, 62.753296%, 68.959045%)" offset="0.40625"/><stop stop-opacity="1" stop-color="rgb(1.179504%, 62.532043%, 69.026184%)" offset="0.414062"/><stop stop-opacity="1" stop-color="rgb(1.16272%, 62.312317%, 69.093323%)" offset="0.421875"/><stop stop-opacity="1" stop-color="rgb(1.147461%, 62.09259%, 69.160461%)" offset="0.429687"/><stop stop-opacity="1" stop-color="rgb(1.132202%, 61.871338%, 69.2276%)" offset="0.4375"/><stop stop-opacity="1" stop-color="rgb(1.116943%, 61.651611%, 69.294739%)" offset="0.445312"/><stop stop-opacity="1" stop-color="rgb(1.100159%, 61.430359%, 69.361877%)" offset="0.453125"/><stop stop-opacity="1" stop-color="rgb(1.0849%, 61.210632%, 69.429016%)" offset="0.460937"/><stop stop-opacity="1" stop-color="rgb(1.069641%, 60.990906%, 69.496155%)" offset="0.46875"/><stop stop-opacity="1" stop-color="rgb(1.054382%, 60.769653%, 69.563293%)" offset="0.476562"/><stop stop-opacity="1" stop-color="rgb(1.037598%, 60.549927%, 69.631958%)" offset="0.484375"/><stop stop-opacity="1" stop-color="rgb(1.022339%, 60.328674%, 69.699097%)" offset="0.492187"/><stop stop-opacity="1" stop-color="rgb(1.00708%, 60.108948%, 69.766235%)" offset="0.5"/><stop stop-opacity="1" stop-color="rgb(0.991821%, 59.889221%, 69.833374%)" offset="0.507812"/><stop stop-opacity="1" stop-color="rgb(0.975037%, 59.667969%, 69.900513%)" offset="0.515625"/><stop stop-opacity="1" stop-color="rgb(0.959778%, 59.448242%, 69.967651%)" offset="0.523437"/><stop stop-opacity="1" stop-color="rgb(0.944519%, 59.228516%, 70.03479%)" offset="0.53125"/><stop stop-opacity="1" stop-color="rgb(0.92926%, 59.007263%, 70.101929%)" offset="0.539062"/><stop stop-opacity="1" stop-color="rgb(0.912476%, 58.787537%, 70.169067%)" offset="0.546875"/><stop stop-opacity="1" stop-color="rgb(0.897217%, 58.566284%, 70.236206%)" offset="0.554687"/><stop stop-opacity="1" stop-color="rgb(0.881958%, 58.346558%, 70.303345%)" offset="0.5625"/><stop stop-opacity="1" stop-color="rgb(0.866699%, 58.126831%, 70.370483%)" offset="0.570312"/><stop stop-opacity="1" stop-color="rgb(0.849915%, 57.905579%, 70.437622%)" offset="0.578125"/><stop stop-opacity="1" stop-color="rgb(0.834656%, 57.685852%, 70.504761%)" offset="0.585937"/><stop stop-opacity="1" stop-color="rgb(0.819397%, 57.4646%, 70.571899%)" offset="0.59375"/><stop stop-opacity="1" stop-color="rgb(0.804138%, 57.244873%, 70.639038%)" offset="0.601562"/><stop stop-opacity="1" stop-color="rgb(0.788879%, 57.025146%, 70.706177%)" offset="0.609375"/><stop stop-opacity="1" stop-color="rgb(0.772095%, 56.803894%, 70.773315%)" offset="0.617187"/><stop stop-opacity="1" stop-color="rgb(0.756836%, 56.584167%, 70.840454%)" offset="0.625"/><stop stop-opacity="1" stop-color="rgb(0.741577%, 56.364441%, 70.907593%)" offset="0.632812"/><stop stop-opacity="1" stop-color="rgb(0.726318%, 56.143188%, 70.974731%)" offset="0.640625"/><stop stop-opacity="1" stop-color="rgb(0.709534%, 55.923462%, 71.04187%)" offset="0.648437"/><stop stop-opacity="1" stop-color="rgb(0.694275%, 55.702209%, 71.109009%)" offset="0.65625"/><stop stop-opacity="1" stop-color="rgb(0.679016%, 55.482483%, 71.176147%)" offset="0.664062"/><stop stop-opacity="1" stop-color="rgb(0.663757%, 55.262756%, 71.243286%)" offset="0.671875"/><stop stop-opacity="1" stop-color="rgb(0.646973%, 55.041504%, 71.310425%)" offset="0.679687"/><stop stop-opacity="1" stop-color="rgb(0.631714%, 54.821777%, 71.377563%)" offset="0.6875"/><stop stop-opacity="1" stop-color="rgb(0.616455%, 54.602051%, 71.444702%)" offset="0.695312"/><stop stop-opacity="1" stop-color="rgb(0.601196%, 54.380798%, 71.511841%)" offset="0.703125"/><stop stop-opacity="1" stop-color="rgb(0.584412%, 54.161072%, 71.578979%)" offset="0.710937"/><stop stop-opacity="1" stop-color="rgb(0.569153%, 53.939819%, 71.646118%)" offset="0.71875"/><stop stop-opacity="1" stop-color="rgb(0.553894%, 53.720093%, 71.714783%)" offset="0.726562"/><stop stop-opacity="1" stop-color="rgb(0.538635%, 53.500366%, 71.781921%)" offset="0.734375"/><stop stop-opacity="1" stop-color="rgb(0.521851%, 53.279114%, 71.84906%)" offset="0.742187"/><stop stop-opacity="1" stop-color="rgb(0.506592%, 53.059387%, 71.916199%)" offset="0.75"/><stop stop-opacity="1" stop-color="rgb(0.491333%, 52.838135%, 71.983337%)" offset="0.757812"/><stop stop-opacity="1" stop-color="rgb(0.476074%, 52.618408%, 72.050476%)" offset="0.765625"/><stop stop-opacity="1" stop-color="rgb(0.45929%, 52.398682%, 72.117615%)" offset="0.773438"/><stop stop-opacity="1" stop-color="rgb(0.444031%, 52.177429%, 72.184753%)" offset="0.78125"/><stop stop-opacity="1" stop-color="rgb(0.428772%, 51.957703%, 72.251892%)" offset="0.789062"/><stop stop-opacity="1" stop-color="rgb(0.413513%, 51.737976%, 72.319031%)" offset="0.796875"/><stop stop-opacity="1" stop-color="rgb(0.398254%, 51.516724%, 72.386169%)" offset="0.804688"/><stop stop-opacity="1" stop-color="rgb(0.38147%, 51.296997%, 72.453308%)" offset="0.8125"/><stop stop-opacity="1" stop-color="rgb(0.366211%, 51.075745%, 72.520447%)" offset="0.820312"/><stop stop-opacity="1" stop-color="rgb(0.350952%, 50.856018%, 72.587585%)" offset="0.828125"/><stop stop-opacity="1" stop-color="rgb(0.335693%, 50.636292%, 72.654724%)" offset="0.835938"/><stop stop-opacity="1" stop-color="rgb(0.318909%, 50.415039%, 72.721863%)" offset="0.84375"/><stop stop-opacity="1" stop-color="rgb(0.30365%, 50.195312%, 72.789001%)" offset="0.851562"/><stop stop-opacity="1" stop-color="rgb(0.288391%, 49.97406%, 72.85614%)" offset="0.859375"/><stop stop-opacity="1" stop-color="rgb(0.273132%, 49.754333%, 72.923279%)" offset="0.867188"/><stop stop-opacity="1" stop-color="rgb(0.256348%, 49.534607%, 72.990417%)" offset="0.875"/><stop stop-opacity="1" stop-color="rgb(0.241089%, 49.313354%, 73.057556%)" offset="0.882812"/><stop stop-opacity="1" stop-color="rgb(0.22583%, 49.093628%, 73.124695%)" offset="0.890625"/><stop stop-opacity="1" stop-color="rgb(0.210571%, 48.873901%, 73.191833%)" offset="0.898438"/><stop stop-opacity="1" stop-color="rgb(0.193787%, 48.652649%, 73.258972%)" offset="0.90625"/><stop stop-opacity="1" stop-color="rgb(0.178528%, 48.432922%, 73.326111%)" offset="0.914062"/><stop stop-opacity="1" stop-color="rgb(0.163269%, 48.21167%, 73.39325%)" offset="0.921875"/><stop stop-opacity="1" stop-color="rgb(0.14801%, 47.991943%, 73.460388%)" offset="0.929688"/><stop stop-opacity="1" stop-color="rgb(0.131226%, 47.772217%, 73.527527%)" offset="0.9375"/><stop stop-opacity="1" stop-color="rgb(0.115967%, 47.550964%, 73.594666%)" offset="0.945312"/><stop stop-opacity="1" stop-color="rgb(0.100708%, 47.331238%, 73.661804%)" offset="0.953125"/><stop stop-opacity="1" stop-color="rgb(0.0854492%, 47.109985%, 73.728943%)" offset="0.960938"/><stop stop-opacity="1" stop-color="rgb(0.0686646%, 46.890259%, 73.797607%)" offset="0.96875"/><stop stop-opacity="1" stop-color="rgb(0.0534058%, 46.670532%, 73.864746%)" offset="0.976562"/><stop stop-opacity="1" stop-color="rgb(0.038147%, 46.44928%, 73.931885%)" offset="0.984375"/><stop stop-opacity="1" stop-color="rgb(0.0228882%, 46.229553%, 73.999023%)" offset="0.992187"/><stop stop-opacity="1" stop-color="rgb(0.00762939%, 46.009827%, 74.066162%)" offset="1"/></linearGradient><clipPath id="c26ada9275"><path d="M 110 59 L 266 59 L 266 253.257812 L 110 253.257812 Z M 110 59 " clip-rule="nonzero"/></clipPath><clipPath id="9a87143864"><path d="M 243.183594 130.316406 L 289.691406 130.316406 L 289.691406 176.828125 L 243.183594 176.828125 Z M 243.183594 130.316406 " clip-rule="nonzero"/></clipPath></defs><g clip-path="url(#88a22c42ce)"><g clip-path="url(#00619524c5)"><path fill="#0075bd" d="M 54.710938 21.242188 L 320.289062 21.242188 L 320.289062 286.816406 L 54.710938 286.816406 Z M 54.710938 21.242188 " fill-opacity="1" fill-rule="nonzero"/></g></g><g clip-path="url(#9285db1fa9)"><g clip-path="url(#839a181a9d)"><path fill="#ffffff" d="M 61.746094 28.273438 L 313.253906 28.273438 L 313.253906 279.785156 L 61.746094 279.785156 Z M 61.746094 28.273438 " fill-opacity="1" fill-rule="nonzero"/></g></g><g clip-path="url(#4fe66b642a)"><g clip-path="url(#8cb54673b7)"><path fill="url(#a4994407b2)" d="M 70.050781 36.578125 L 70.050781 271.476562 L 304.949219 271.476562 L 304.949219 36.578125 Z M 70.050781 36.578125 " fill-rule="nonzero"/></g></g><g clip-path="url(#c26ada9275)"><path fill="#ffffff" d="M 184.644531 210.085938 L 191.179688 210.085938 L 194.132812 223.574219 L 187.921875 238.542969 L 181.710938 223.574219 Z M 225.195312 205.3125 C 230.355469 205.191406 234.644531 209.328125 234.75 214.527344 C 234.75 214.617188 234.75 214.71875 234.75 214.804688 C 234.765625 219.992188 230.597656 224.226562 225.433594 224.261719 C 220.253906 224.28125 216.035156 220.09375 216.019531 214.890625 C 216.019531 214.855469 216.019531 214.839844 216.019531 214.804688 C 215.964844 209.652344 220.066406 205.417969 225.195312 205.3125 Z M 198.863281 202.574219 L 202.226562 204.003906 L 196.222656 218.441406 L 194.132812 208.863281 Z M 176.980469 202.574219 L 181.59375 208.863281 L 179.5 218.441406 L 173.515625 204.003906 Z M 187.921875 197.972656 L 195.8125 201.296875 L 191.695312 206.898438 L 184.132812 206.898438 L 179.910156 201.296875 Z M 210.324219 184.484375 L 203.496094 201.058594 L 191.386719 195.992188 Z M 165.402344 184.484375 L 184.441406 195.992188 L 172.347656 201.058594 Z M 161.179688 182.574219 L 185.710938 241.542969 C 186.207031 242.765625 187.597656 243.351562 188.8125 242.851562 C 189.414062 242.59375 189.878906 242.128906 190.117188 241.542969 L 214.644531 182.574219 L 223.789062 185.519531 L 223.789062 202.332031 C 216.945312 203.210938 212.089844 209.5 212.964844 216.390625 C 213.839844 223.261719 220.101562 228.140625 226.960938 227.261719 C 233.820312 226.382812 238.660156 220.09375 237.785156 213.203125 C 237.0625 207.535156 232.621094 203.054688 226.960938 202.332031 L 226.960938 186.550781 L 245.570312 192.566406 C 250.578125 194.183594 254.300781 198.4375 255.261719 203.640625 L 262.414062 242.523438 C 263.050781 245.984375 260.75 249.328125 257.304688 249.949219 C 256.910156 250.015625 256.496094 250.070312 256.101562 250.070312 L 119.621094 250.070312 C 116.105469 250.035156 113.273438 247.140625 113.308594 243.609375 C 113.308594 243.246094 113.34375 242.867188 113.410156 242.507812 L 120.5625 203.625 C 121.523438 198.4375 125.246094 194.183594 130.238281 192.546875 L 148.867188 186.550781 L 148.867188 194.390625 C 144.0625 195.046875 140.152344 198.644531 139.089844 203.402344 L 133.617188 227.65625 C 133.238281 229.292969 133.667969 231.015625 134.785156 232.289062 C 136.191406 233.859375 138.007812 235.011719 140.03125 235.597656 C 140.648438 237.40625 142.589844 238.390625 144.40625 237.769531 C 146.207031 237.164062 147.167969 235.203125 146.566406 233.394531 C 145.96875 231.585938 144.011719 230.601562 142.210938 231.222656 C 141.558594 231.429688 140.992188 231.84375 140.5625 232.394531 C 139.277344 231.945312 138.128906 231.152344 137.203125 230.15625 C 136.738281 229.671875 136.550781 229 136.671875 228.363281 L 142.140625 204.105469 C 143.1875 199.523438 147.734375 196.648438 152.296875 197.699219 C 155.46875 198.4375 157.9375 200.917969 158.660156 204.105469 L 164.234375 228.363281 C 164.371094 229 164.164062 229.671875 163.703125 230.15625 C 162.792969 231.152344 161.644531 231.945312 160.339844 232.394531 C 159.191406 230.878906 157.03125 230.585938 155.519531 231.757812 C 154.011719 232.910156 153.71875 235.082031 154.886719 236.597656 C 156.035156 238.113281 158.195312 238.40625 159.707031 237.234375 C 160.253906 236.820312 160.667969 236.253906 160.871094 235.597656 C 162.898438 235.011719 164.730469 233.859375 166.136719 232.289062 C 167.253906 231.015625 167.683594 229.292969 167.289062 227.65625 L 161.816406 203.402344 C 160.753906 198.644531 156.859375 195.046875 152.039062 194.390625 L 152.039062 185.519531 Z M 171.917969 167.894531 C 174.816406 169.875 178.230469 170.925781 181.710938 170.925781 L 194.027344 170.925781 C 197.542969 170.945312 200.992188 169.875 203.90625 167.894531 L 203.90625 174.164062 C 203.90625 177.320312 205.195312 180.351562 207.492188 182.503906 L 187.921875 194.375 L 168.351562 182.503906 C 170.632812 180.351562 171.9375 177.320312 171.917969 174.164062 Z M 208.539062 163.984375 C 217.355469 165.464844 223.804688 173.132812 223.804688 182.109375 L 223.804688 182.175781 L 214.851562 179.300781 C 213.976562 179.007812 213.015625 179.128906 212.226562 179.609375 L 210.425781 180.746094 C 208.332031 179.214844 207.082031 176.765625 207.0625 174.164062 L 207.0625 165.277344 C 207.5625 164.847656 208.058594 164.414062 208.539062 163.984375 Z M 167.289062 163.984375 C 167.785156 164.414062 168.265625 164.863281 168.761719 165.277344 L 168.761719 174.164062 C 168.746094 176.765625 167.511719 179.230469 165.402344 180.746094 L 163.496094 179.609375 C 162.707031 179.128906 161.765625 179.007812 160.890625 179.28125 L 152.039062 182.160156 L 152.039062 182.089844 C 152.039062 173.132812 158.488281 165.464844 167.304688 163.984375 Z M 229.6875 112.441406 C 230.21875 112.441406 230.699219 112.800781 230.835938 113.300781 C 231.625 116.246094 231.695312 119.332031 231.058594 122.3125 C 230.71875 124.949219 229.257812 127.289062 227.0625 128.738281 L 227.0625 114.300781 C 227.628906 113.527344 228.382812 112.90625 229.257812 112.527344 C 229.398438 112.476562 229.550781 112.457031 229.707031 112.441406 Z M 145.984375 112.390625 C 146.191406 112.390625 146.378906 112.441406 146.550781 112.527344 C 147.40625 112.921875 148.128906 113.542969 148.660156 114.300781 L 148.660156 128.738281 C 146.464844 127.273438 145.007812 124.929688 144.664062 122.3125 C 144.027344 119.332031 144.097656 116.246094 144.871094 113.300781 C 145.007812 112.785156 145.453125 112.421875 145.984375 112.390625 Z M 158.023438 84.53125 C 175.882812 94.230469 196.445312 97.609375 216.429688 94.078125 C 219.894531 93.457031 223.1875 95.765625 223.820312 99.226562 C 223.875 99.605469 223.90625 99.984375 223.90625 100.363281 L 223.90625 137.714844 C 223.90625 141.160156 222.691406 144.484375 220.441406 147.085938 C 215.175781 153.21875 209.484375 158.9375 203.394531 164.242188 C 200.785156 166.5 197.457031 167.722656 194.027344 167.722656 L 181.710938 167.722656 C 178.28125 167.722656 174.953125 166.5 172.347656 164.242188 C 166.292969 158.9375 160.632812 153.21875 155.402344 147.085938 C 153.171875 144.484375 151.9375 141.160156 151.9375 137.714844 L 151.9375 99.503906 C 152.089844 99.347656 152.226562 99.175781 152.363281 99.003906 C 155.742188 94.902344 157.714844 89.839844 158.023438 84.53125 Z M 192.160156 59.226562 C 179.15625 58.96875 166.464844 63.136719 156.136719 71.0625 C 149.292969 70.941406 143.53125 76.125 142.878906 82.964844 C 142.125 87.890625 142.621094 92.941406 144.355469 97.609375 C 145.023438 99.453125 146.738281 100.675781 148.675781 100.707031 L 148.675781 110.046875 C 148.402344 109.890625 148.128906 109.734375 147.835938 109.617188 C 145.625 108.632812 143.050781 109.632812 142.074219 111.835938 C 141.96875 112.042969 141.902344 112.269531 141.832031 112.476562 C 140.957031 115.867188 140.890625 119.433594 141.628906 122.863281 C 142.195312 127.03125 144.871094 130.617188 148.675781 132.371094 L 148.675781 137.714844 C 148.695312 141.933594 150.222656 146 152.980469 149.167969 C 156.601562 153.425781 160.445312 157.488281 164.457031 161.347656 C 155.230469 164 148.882812 172.460938 148.882812 182.089844 L 148.882812 183.191406 L 129.3125 189.515625 C 123.171875 191.480469 118.589844 196.683594 117.40625 203.054688 L 110.253906 241.921875 C 109.3125 247.140625 112.726562 252.136719 117.921875 253.082031 C 118.472656 253.203125 119.054688 253.257812 119.621094 253.257812 L 256.101562 253.257812 C 261.386719 253.308594 265.691406 249.050781 265.742188 243.746094 C 265.742188 243.144531 265.691406 242.523438 265.570312 241.921875 L 258.417969 203.054688 C 257.253906 196.683594 252.671875 191.480469 246.53125 189.515625 L 226.960938 183.191406 L 226.960938 182.089844 C 226.960938 172.425781 220.546875 163.949219 211.285156 161.347656 C 215.332031 157.488281 219.207031 153.425781 222.863281 149.167969 C 225.589844 145.980469 227.082031 141.917969 227.0625 137.714844 L 227.0625 132.371094 C 230.921875 130.648438 233.632812 127.050781 234.214844 122.863281 C 234.953125 119.433594 234.886719 115.867188 234.011719 112.476562 C 233.410156 110.132812 231.027344 108.71875 228.675781 109.324219 C 228.417969 109.390625 228.144531 109.496094 227.90625 109.617188 C 227.613281 109.734375 227.339844 109.890625 227.0625 110.046875 L 227.0625 107.1875 C 229.738281 105.757812 231.625 103.191406 232.210938 100.210938 C 233.460938 93.230469 233.050781 86.046875 231.042969 79.261719 C 229.929688 75.503906 227.59375 72.230469 224.421875 69.957031 C 214.988281 63.207031 203.753906 59.449219 192.160156 59.226562 " fill-opacity="1" fill-rule="nonzero"/></g><g clip-path="url(#9a87143864)"><path fill="#ffffff" d="M 272.238281 176.824219 C 272.238281 176.824219 272.238281 176.824219 260.542969 176.824219 C 260.542969 176.824219 260.542969 176.824219 260.542969 159.554688 C 260.542969 159.554688 260.542969 159.554688 243.183594 159.554688 C 243.183594 159.554688 243.183594 159.554688 243.183594 147.679688 C 243.183594 147.679688 243.183594 147.679688 260.542969 147.679688 C 260.542969 147.679688 260.542969 147.679688 260.542969 130.316406 C 260.542969 130.316406 260.542969 130.316406 272.238281 130.316406 C 272.238281 130.316406 272.238281 130.316406 272.238281 147.679688 C 272.238281 147.679688 272.238281 147.679688 289.6875 147.679688 C 289.6875 147.679688 289.6875 147.679688 289.6875 159.554688 C 289.6875 159.554688 289.6875 159.554688 272.238281 159.554688 C 272.238281 159.554688 272.238281 159.554688 272.238281 176.824219 Z M 272.238281 176.824219 " fill-opacity="1" fill-rule="nonzero"/></g><g fill="#0075bd" fill-opacity="1"><g transform="translate(16.397691, 331.914678)"><g><path d="M 15.109375 -39.5625 C 16.867188 -39.5625 18.382812 -39.382812 19.65625 -39.03125 C 20.9375 -38.675781 22.347656 -38.175781 23.890625 -37.53125 C 24.421875 -37.3125 24.929688 -37.113281 25.421875 -36.9375 C 25.910156 -36.769531 26.320312 -36.6875 26.65625 -36.6875 C 27.257812 -36.6875 27.75 -36.929688 28.125 -37.421875 C 28.5 -37.910156 28.6875 -38.625 28.6875 -39.5625 L 29.75 -39.5625 L 29.75 -27.046875 L 28.6875 -27.046875 C 28.3125 -29.046875 27.503906 -30.832031 26.265625 -32.40625 C 25.023438 -33.988281 23.484375 -35.207031 21.640625 -36.0625 C 19.796875 -36.925781 17.820312 -37.359375 15.71875 -37.359375 C 13.425781 -37.359375 11.546875 -36.804688 10.078125 -35.703125 C 8.617188 -34.597656 7.890625 -33.21875 7.890625 -31.5625 C 7.890625 -30.320312 8.320312 -29.269531 9.1875 -28.40625 C 10.050781 -27.539062 11.128906 -26.828125 12.421875 -26.265625 C 13.722656 -25.703125 15.519531 -25.046875 17.8125 -24.296875 C 20.101562 -23.535156 22.019531 -22.835938 23.5625 -22.203125 C 25.101562 -21.566406 26.453125 -20.78125 27.609375 -19.84375 C 28.929688 -18.75 30.015625 -17.445312 30.859375 -15.9375 C 31.703125 -14.4375 32.125 -12.75 32.125 -10.875 C 32.125 -8.582031 31.503906 -6.550781 30.265625 -4.78125 C 29.023438 -3.019531 27.285156 -1.648438 25.046875 -0.671875 C 22.816406 0.296875 20.234375 0.78125 17.296875 0.78125 C 15.460938 0.78125 13.914062 0.617188 12.65625 0.296875 C 11.394531 -0.015625 10.109375 -0.429688 8.796875 -0.953125 C 7.554688 -1.484375 6.632812 -1.75 6.03125 -1.75 C 5.351562 -1.75 4.769531 -1.539062 4.28125 -1.125 C 3.789062 -0.707031 3.359375 -0.0703125 2.984375 0.78125 L 1.921875 0.78125 L 1.921875 -13.40625 L 2.984375 -13.40625 C 3.660156 -9.65625 5.265625 -6.679688 7.796875 -4.484375 C 10.335938 -2.285156 13.410156 -1.1875 17.015625 -1.1875 C 19.722656 -1.1875 21.863281 -1.738281 23.4375 -2.84375 C 25.019531 -3.957031 25.8125 -5.453125 25.8125 -7.328125 C 25.8125 -8.796875 25.347656 -10.035156 24.421875 -11.046875 C 23.503906 -12.054688 22.359375 -12.878906 20.984375 -13.515625 C 19.617188 -14.160156 17.769531 -14.878906 15.4375 -15.671875 C 12.550781 -16.679688 10.210938 -17.628906 8.421875 -18.515625 C 6.640625 -19.398438 5.117188 -20.640625 3.859375 -22.234375 C 2.597656 -23.828125 1.96875 -25.847656 1.96875 -28.296875 C 1.96875 -30.429688 2.53125 -32.351562 3.65625 -34.0625 C 4.789062 -35.78125 6.351562 -37.125 8.34375 -38.09375 C 10.332031 -39.070312 12.585938 -39.5625 15.109375 -39.5625 Z M 15.109375 -39.5625 "/></g></g></g><g fill="#0075bd" fill-opacity="1"><g transform="translate(50.433832, 331.914678)"><g><path d="M 14.703125 -25.140625 C 13.804688 -25.097656 13.160156 -24.953125 12.765625 -24.703125 C 12.367188 -24.460938 12.171875 -24.0625 12.171875 -23.5 C 12.171875 -22.707031 12.453125 -21.65625 13.015625 -20.34375 L 17.53125 -9.46875 L 20.453125 -17.921875 C 21.242188 -20.210938 21.640625 -21.789062 21.640625 -22.65625 C 21.640625 -24.3125 20.644531 -25.140625 18.65625 -25.140625 L 18.65625 -26.15625 L 27.21875 -26.15625 L 27.21875 -25.140625 C 26.238281 -25.140625 25.421875 -24.675781 24.765625 -23.75 C 24.109375 -22.832031 23.382812 -21.226562 22.59375 -18.9375 L 14.65625 3.78125 C 13.601562 6.820312 12.484375 8.941406 11.296875 10.140625 C 10.117188 11.347656 8.644531 11.953125 6.875 11.953125 C 5.40625 11.953125 4.21875 11.535156 3.3125 10.703125 C 2.414062 9.878906 1.96875 8.828125 1.96875 7.546875 C 1.96875 6.492188 2.304688 5.601562 2.984375 4.875 C 3.660156 4.144531 4.488281 3.78125 5.46875 3.78125 C 6.75 3.78125 7.628906 4.359375 8.109375 5.515625 C 8.296875 6.003906 8.390625 6.628906 8.390625 7.390625 C 8.429688 7.953125 8.507812 8.375 8.625 8.65625 C 8.738281 8.9375 8.984375 9.078125 9.359375 9.078125 C 10.109375 9.078125 10.820312 8.460938 11.5 7.234375 C 12.175781 6.015625 12.960938 4 13.859375 1.1875 L 5.234375 -19.671875 C 4.453125 -21.546875 3.773438 -22.867188 3.203125 -23.640625 C 2.640625 -24.410156 1.890625 -24.910156 0.953125 -25.140625 L 0.953125 -26.15625 L 14.703125 -26.15625 Z M 14.703125 -25.140625 "/></g></g></g><g fill="#0075bd" fill-opacity="1"><g transform="translate(78.60946, 331.914678)"><g><path d="M 18.65625 -26.765625 C 20.382812 -26.765625 21.820312 -26.34375 22.96875 -25.5 C 24.113281 -24.65625 24.851562 -23.484375 25.1875 -21.984375 C 26.238281 -23.523438 27.476562 -24.707031 28.90625 -25.53125 C 30.332031 -26.351562 31.816406 -26.765625 33.359375 -26.765625 C 35.578125 -26.765625 37.269531 -26.066406 38.4375 -24.671875 C 39.601562 -23.285156 40.1875 -21.597656 40.1875 -19.609375 L 40.1875 -4 C 40.1875 -3.132812 40.382812 -2.429688 40.78125 -1.890625 C 41.175781 -1.347656 41.800781 -1.054688 42.65625 -1.015625 L 42.65625 0 L 30.046875 0 L 30.046875 -1.015625 C 31.015625 -1.054688 31.660156 -1.3125 31.984375 -1.78125 C 32.304688 -2.25 32.46875 -3.082031 32.46875 -4.28125 L 32.46875 -20.234375 C 32.46875 -20.835938 32.296875 -21.46875 31.953125 -22.125 C 31.617188 -22.78125 31.035156 -23.109375 30.203125 -23.109375 C 29.421875 -23.109375 28.691406 -22.851562 28.015625 -22.34375 C 27.335938 -21.832031 26.546875 -20.941406 25.640625 -19.671875 L 25.640625 -4.390625 C 25.640625 -2.367188 26.445312 -1.242188 28.0625 -1.015625 L 28.0625 0 L 15.5625 0 L 15.5625 -1.015625 C 17.132812 -1.203125 17.921875 -2.382812 17.921875 -4.5625 L 17.921875 -19.953125 C 17.921875 -20.816406 17.734375 -21.546875 17.359375 -22.140625 C 16.984375 -22.742188 16.363281 -23.046875 15.5 -23.046875 C 14.03125 -23.046875 12.566406 -21.921875 11.109375 -19.671875 L 11.109375 -4.453125 C 11.109375 -2.390625 11.929688 -1.242188 13.578125 -1.015625 L 13.578125 0 L 0.78125 0 L 0.78125 -1.015625 C 1.6875 -1.128906 2.34375 -1.4375 2.75 -1.9375 C 3.164062 -2.445312 3.375 -3.34375 3.375 -4.625 L 3.375 -21.359375 C 3.375 -22.710938 3.148438 -23.660156 2.703125 -24.203125 C 2.253906 -24.753906 1.613281 -25.066406 0.78125 -25.140625 L 0.78125 -26.15625 L 11.109375 -26.15625 L 11.109375 -22.484375 L 11.21875 -22.484375 C 12.382812 -23.984375 13.566406 -25.070312 14.765625 -25.75 C 15.960938 -26.425781 17.257812 -26.765625 18.65625 -26.765625 Z M 18.65625 -26.765625 "/></g></g></g><g fill="#0075bd" fill-opacity="1"><g transform="translate(122.056272, 331.914678)"><g><path d="M 17.75 -26.765625 C 19.476562 -26.765625 21.023438 -26.160156 22.390625 -24.953125 C 23.765625 -23.753906 24.847656 -22.113281 25.640625 -20.03125 C 26.429688 -17.945312 26.828125 -15.59375 26.828125 -12.96875 C 26.828125 -9.882812 26.3125 -7.304688 25.28125 -5.234375 C 24.25 -3.171875 22.988281 -1.648438 21.5 -0.671875 C 20.019531 0.296875 18.566406 0.78125 17.140625 0.78125 C 14.878906 0.78125 13.09375 -0.210938 11.78125 -2.203125 L 11.671875 -2.203125 L 11.671875 7.609375 C 11.671875 8.890625 11.941406 9.753906 12.484375 10.203125 C 13.023438 10.648438 14.066406 10.894531 15.609375 10.9375 L 15.609375 11.953125 L 0.84375 11.953125 L 0.84375 10.9375 C 1.9375 10.9375 2.722656 10.671875 3.203125 10.140625 C 3.691406 9.617188 3.9375 8.753906 3.9375 7.546875 L 3.9375 -21.75 C 3.9375 -22.988281 3.679688 -23.863281 3.171875 -24.375 C 2.671875 -24.882812 1.894531 -25.140625 0.84375 -25.140625 L 0.84375 -26.15625 L 11.671875 -26.15625 L 11.671875 -23.046875 L 11.78125 -23.046875 C 13.28125 -25.523438 15.269531 -26.765625 17.75 -26.765625 Z M 11.671875 -20.0625 L 11.671875 -4.671875 C 13.128906 -2.835938 14.425781 -1.921875 15.5625 -1.921875 C 16.757812 -1.921875 17.582031 -2.71875 18.03125 -4.3125 C 18.488281 -5.90625 18.71875 -8.675781 18.71875 -12.625 C 18.71875 -16.414062 18.441406 -19.15625 17.890625 -20.84375 C 17.347656 -22.539062 16.4375 -23.390625 15.15625 -23.390625 C 14.476562 -23.390625 13.820312 -23.050781 13.1875 -22.375 C 12.550781 -21.695312 12.046875 -20.925781 11.671875 -20.0625 Z M 11.671875 -20.0625 "/></g></g></g><g fill="#0075bd" fill-opacity="1"><g transform="translate(150.231899, 331.914678)"><g><path d="M 10.9375 -35.5625 L 11.890625 -35.5625 L 11.890625 -26.15625 L 17.859375 -26.15625 L 17.859375 -23.328125 L 11.890625 -23.328125 L 11.890625 -5.296875 C 11.890625 -4.585938 12.039062 -3.929688 12.34375 -3.328125 C 12.644531 -2.722656 13.171875 -2.421875 13.921875 -2.421875 C 15.203125 -2.421875 16.289062 -3.304688 17.1875 -5.078125 L 17.859375 -4.171875 C 16.359375 -0.867188 13.972656 0.78125 10.703125 0.78125 C 8.597656 0.78125 6.984375 0.125 5.859375 -1.1875 C 4.734375 -2.5 4.171875 -4.09375 4.171875 -5.96875 L 4.171875 -23.328125 L 0.953125 -23.328125 L 0.953125 -24.34375 C 2.753906 -25.625 4.707031 -27.445312 6.8125 -29.8125 C 8.914062 -32.175781 10.289062 -34.09375 10.9375 -35.5625 Z M 10.9375 -35.5625 "/></g></g></g><g fill="#0075bd" fill-opacity="1"><g transform="translate(168.996856, 331.914678)"><g><path d="M 13.984375 -26.765625 C 16.273438 -26.765625 18.367188 -26.21875 20.265625 -25.125 C 22.160156 -24.039062 23.679688 -22.457031 24.828125 -20.375 C 25.972656 -18.289062 26.546875 -15.800781 26.546875 -12.90625 C 26.546875 -9.820312 25.90625 -7.253906 24.625 -5.203125 C 23.351562 -3.160156 21.765625 -1.648438 19.859375 -0.671875 C 17.960938 0.296875 16.078125 0.78125 14.203125 0.78125 C 12.140625 0.78125 10.140625 0.25 8.203125 -0.8125 C 6.265625 -1.882812 4.6875 -3.460938 3.46875 -5.546875 C 2.25 -7.628906 1.640625 -10.140625 1.640625 -13.078125 C 1.640625 -15.703125 2.164062 -18.046875 3.21875 -20.109375 C 4.269531 -22.179688 5.734375 -23.804688 7.609375 -24.984375 C 9.484375 -26.171875 11.609375 -26.765625 13.984375 -26.765625 Z M 9.75 -14.203125 C 9.75 -10.816406 9.859375 -8.210938 10.078125 -6.390625 C 10.304688 -4.566406 10.726562 -3.242188 11.34375 -2.421875 C 11.96875 -1.597656 12.882812 -1.1875 14.09375 -1.1875 C 15.175781 -1.1875 16.035156 -1.523438 16.671875 -2.203125 C 17.316406 -2.878906 17.769531 -3.976562 18.03125 -5.5 C 18.289062 -7.019531 18.421875 -9.09375 18.421875 -11.71875 C 18.421875 -15.101562 18.328125 -17.6875 18.140625 -19.46875 C 17.953125 -21.257812 17.539062 -22.59375 16.90625 -23.46875 C 16.269531 -24.351562 15.296875 -24.796875 13.984375 -24.796875 C 12.328125 -24.796875 11.207031 -23.898438 10.625 -22.109375 C 10.039062 -20.328125 9.75 -17.691406 9.75 -14.203125 Z M 9.75 -14.203125 "/></g></g></g><g fill="#0075bd" fill-opacity="1"><g transform="translate(197.172484, 331.914678)"><g><path d="M 22.875 -39.5625 C 24.832031 -39.5625 26.503906 -39.382812 27.890625 -39.03125 C 29.285156 -38.675781 30.695312 -38.195312 32.125 -37.59375 C 33.21875 -37.144531 33.988281 -36.921875 34.4375 -36.921875 C 35.144531 -36.921875 35.675781 -37.125 36.03125 -37.53125 C 36.394531 -37.945312 36.726562 -38.585938 37.03125 -39.453125 L 38.15625 -39.453125 L 38.15625 -26.3125 L 37.03125 -26.3125 C 35.820312 -29.8125 34.035156 -32.523438 31.671875 -34.453125 C 29.304688 -36.390625 26.660156 -37.359375 23.734375 -37.359375 C 20.191406 -37.359375 17.4375 -35.6875 15.46875 -32.34375 C 13.5 -29 12.515625 -24.398438 12.515625 -18.546875 C 12.515625 -11.367188 13.882812 -6.539062 16.625 -4.0625 C 17.675781 -3.082031 18.832031 -2.359375 20.09375 -1.890625 C 21.351562 -1.421875 22.566406 -1.1875 23.734375 -1.1875 C 25.492188 -1.1875 27.296875 -1.597656 29.140625 -2.421875 L 29.140625 -11.890625 C 29.140625 -14.222656 27.65625 -15.390625 24.6875 -15.390625 L 24.296875 -15.390625 L 24.296875 -16.40625 L 42.65625 -16.40625 L 42.65625 -15.390625 C 39.65625 -15.390625 38.15625 -14.242188 38.15625 -11.953125 L 38.15625 -2.421875 C 36.28125 -1.410156 34.035156 -0.625 31.421875 -0.0625 C 28.804688 0.5 26.164062 0.78125 23.5 0.78125 C 19.175781 0.78125 15.425781 -0.0625 12.25 -1.75 C 9.082031 -3.4375 6.660156 -5.742188 4.984375 -8.671875 C 3.316406 -11.609375 2.484375 -14.878906 2.484375 -18.484375 C 2.484375 -22.273438 3.394531 -25.785156 5.21875 -29.015625 C 7.039062 -32.253906 9.507812 -34.820312 12.625 -36.71875 C 15.738281 -38.613281 19.15625 -39.5625 22.875 -39.5625 Z M 22.875 -39.5625 "/></g></g></g><g fill="#0075bd" fill-opacity="1"><g transform="translate(240.619296, 331.914678)"><g><path d="M 13.078125 -26.765625 C 15.367188 -26.765625 17.289062 -26.179688 18.84375 -25.015625 C 20.40625 -23.859375 21.582031 -22.367188 22.375 -20.546875 C 23.164062 -18.722656 23.578125 -16.832031 23.609375 -14.875 L 23.609375 -13.921875 L 8.796875 -13.921875 C 9.015625 -10.804688 9.828125 -8.289062 11.234375 -6.375 C 12.648438 -4.457031 14.410156 -3.5 16.515625 -3.5 C 17.867188 -3.5 19.023438 -3.863281 19.984375 -4.59375 C 20.941406 -5.320312 21.8125 -6.382812 22.59375 -7.78125 L 23.609375 -7.15625 C 22.335938 -4.445312 20.816406 -2.445312 19.046875 -1.15625 C 17.285156 0.132812 15.203125 0.78125 12.796875 0.78125 C 10.390625 0.78125 8.332031 0.191406 6.625 -0.984375 C 4.914062 -2.171875 3.609375 -3.773438 2.703125 -5.796875 C 1.804688 -7.828125 1.359375 -10.101562 1.359375 -12.625 C 1.359375 -15.144531 1.882812 -17.484375 2.9375 -19.640625 C 3.988281 -21.796875 5.414062 -23.519531 7.21875 -24.8125 C 9.019531 -26.113281 10.972656 -26.765625 13.078125 -26.765625 Z M 16.734375 -17.1875 C 16.734375 -19.851562 16.441406 -21.828125 15.859375 -23.109375 C 15.273438 -24.390625 14.347656 -25.03125 13.078125 -25.03125 C 11.722656 -25.03125 10.671875 -24.191406 9.921875 -22.515625 C 9.171875 -20.835938 8.796875 -18.910156 8.796875 -16.734375 L 8.796875 -15.78125 L 16.734375 -15.78125 Z M 16.734375 -17.1875 "/></g></g></g><g fill="#0075bd" fill-opacity="1"><g transform="translate(265.301151, 331.914678)"><g><path d="M 18.375 -26.765625 C 20.625 -26.765625 22.34375 -26.003906 23.53125 -24.484375 C 24.71875 -22.960938 25.3125 -21.09375 25.3125 -18.875 L 25.3125 -5.40625 C 25.3125 -4.320312 25.359375 -3.523438 25.453125 -3.015625 C 25.546875 -2.503906 25.710938 -2.117188 25.953125 -1.859375 C 26.191406 -1.597656 26.613281 -1.316406 27.21875 -1.015625 L 27.21875 0 L 15.21875 0 L 15.21875 -1.015625 C 16.789062 -1.203125 17.578125 -2.40625 17.578125 -4.625 L 17.578125 -19.28125 C 17.578125 -21.863281 16.753906 -23.15625 15.109375 -23.15625 C 13.640625 -23.15625 12.210938 -22.085938 10.828125 -19.953125 L 10.828125 -4.28125 C 10.828125 -2.40625 11.613281 -1.316406 13.1875 -1.015625 L 13.1875 0 L 0.953125 0 L 0.953125 -1.015625 C 1.628906 -1.160156 2.15625 -1.492188 2.53125 -2.015625 C 2.90625 -2.546875 3.09375 -3.394531 3.09375 -4.5625 L 3.09375 -21.75 C 3.09375 -22.5 2.929688 -23.203125 2.609375 -23.859375 C 2.296875 -24.523438 1.742188 -24.953125 0.953125 -25.140625 L 0.953125 -26.15625 L 10.828125 -26.15625 L 10.828125 -22.65625 C 12.023438 -24.039062 13.222656 -25.070312 14.421875 -25.75 C 15.628906 -26.425781 16.945312 -26.765625 18.375 -26.765625 Z M 18.375 -26.765625 "/></g></g></g><g fill="#0075bd" fill-opacity="1"><g transform="translate(293.476779, 331.914678)"><g><path d="M 7.953125 -39.5625 C 9.148438 -39.5625 10.171875 -39.140625 11.015625 -38.296875 C 11.859375 -37.453125 12.28125 -36.425781 12.28125 -35.21875 C 12.28125 -34.019531 11.859375 -32.988281 11.015625 -32.125 C 10.171875 -31.257812 9.148438 -30.828125 7.953125 -30.828125 C 6.742188 -30.828125 5.707031 -31.257812 4.84375 -32.125 C 3.976562 -32.988281 3.546875 -34.019531 3.546875 -35.21875 C 3.546875 -36.425781 3.976562 -37.453125 4.84375 -38.296875 C 5.707031 -39.140625 6.742188 -39.5625 7.953125 -39.5625 Z M 11.671875 -4.28125 C 11.671875 -2.144531 12.609375 -1.054688 14.484375 -1.015625 L 14.484375 0 L 0.671875 0 L 0.671875 -1.015625 C 1.835938 -1.015625 2.671875 -1.273438 3.171875 -1.796875 C 3.679688 -2.328125 3.9375 -3.25 3.9375 -4.5625 L 3.9375 -21.640625 C 3.9375 -22.878906 3.691406 -23.769531 3.203125 -24.3125 C 2.722656 -24.863281 1.878906 -25.140625 0.671875 -25.140625 L 0.671875 -26.15625 L 11.671875 -26.15625 Z M 11.671875 -4.28125 "/></g></g></g><g fill="#0075bd" fill-opacity="1"><g transform="translate(308.747962, 331.914678)"><g><path d="M 10.703125 -7.71875 C 10.703125 -6.0625 10.898438 -4.867188 11.296875 -4.140625 C 11.691406 -3.410156 12.320312 -3.046875 13.1875 -3.046875 C 13.976562 -3.046875 14.765625 -3.34375 15.546875 -3.9375 C 16.335938 -4.539062 17.035156 -5.367188 17.640625 -6.421875 L 17.640625 -21.984375 C 17.640625 -23.066406 17.375 -23.832031 16.84375 -24.28125 C 16.320312 -24.738281 15.5 -25.023438 14.375 -25.140625 L 14.375 -26.15625 L 25.359375 -26.15625 L 25.359375 -3.09375 C 25.359375 -1.851562 26 -1.160156 27.28125 -1.015625 L 27.28125 0 L 17.640625 0 L 17.640625 -3.375 C 16.585938 -2.132812 15.421875 -1.128906 14.140625 -0.359375 C 12.867188 0.398438 11.554688 0.78125 10.203125 0.78125 C 7.984375 0.78125 6.222656 0.0625 4.921875 -1.375 C 3.628906 -2.820312 2.984375 -4.75 2.984375 -7.15625 L 2.984375 -21.578125 C 2.984375 -22.742188 2.832031 -23.585938 2.53125 -24.109375 C 2.226562 -24.640625 1.664062 -24.984375 0.84375 -25.140625 L 0.84375 -26.15625 L 10.703125 -26.15625 Z M 10.703125 -7.71875 "/></g></g></g><g fill="#0075bd" fill-opacity="1"><g transform="translate(336.92359, 331.914678)"><g><path d="M 9.359375 -26.765625 C 10.296875 -26.765625 11.109375 -26.671875 11.796875 -26.484375 C 12.492188 -26.296875 13.332031 -26.015625 14.3125 -25.640625 C 15.0625 -25.304688 15.585938 -25.140625 15.890625 -25.140625 C 16.335938 -25.140625 16.722656 -25.269531 17.046875 -25.53125 C 17.367188 -25.789062 17.71875 -26.203125 18.09375 -26.765625 L 18.71875 -26.765625 L 19.15625 -17.921875 L 18.484375 -17.921875 C 17.660156 -20.066406 16.46875 -21.75 14.90625 -22.96875 C 13.34375 -24.1875 11.644531 -24.796875 9.8125 -24.796875 C 8.71875 -24.796875 7.859375 -24.539062 7.234375 -24.03125 C 6.617188 -23.53125 6.3125 -22.882812 6.3125 -22.09375 C 6.3125 -21.113281 6.769531 -20.285156 7.6875 -19.609375 C 8.613281 -18.929688 10.015625 -18.160156 11.890625 -17.296875 C 13.765625 -16.429688 15.285156 -15.625 16.453125 -14.875 C 17.617188 -14.125 18.625 -13.15625 19.46875 -11.96875 C 20.3125 -10.789062 20.734375 -9.359375 20.734375 -7.671875 C 20.734375 -6.085938 20.335938 -4.644531 19.546875 -3.34375 C 18.765625 -2.050781 17.675781 -1.039062 16.28125 -0.3125 C 14.894531 0.414062 13.359375 0.78125 11.671875 0.78125 C 10.617188 0.78125 9.664062 0.664062 8.8125 0.4375 C 7.96875 0.21875 7.097656 -0.078125 6.203125 -0.453125 C 6.085938 -0.484375 5.800781 -0.582031 5.34375 -0.75 C 4.894531 -0.925781 4.523438 -1.015625 4.234375 -1.015625 C 3.554688 -1.015625 2.972656 -0.429688 2.484375 0.734375 L 1.96875 0.734375 L 1.359375 -8.5625 L 1.96875 -8.5625 C 2.945312 -6.195312 4.222656 -4.375 5.796875 -3.09375 C 7.378906 -1.820312 9.109375 -1.1875 10.984375 -1.1875 C 12.148438 -1.1875 13.117188 -1.503906 13.890625 -2.140625 C 14.660156 -2.773438 15.046875 -3.566406 15.046875 -4.515625 C 15.046875 -5.453125 14.753906 -6.191406 14.171875 -6.734375 C 13.585938 -7.273438 12.675781 -7.882812 11.4375 -8.5625 C 10.914062 -8.863281 10.425781 -9.117188 9.96875 -9.328125 C 9.519531 -9.535156 9.144531 -9.710938 8.84375 -9.859375 C 7.113281 -10.691406 5.742188 -11.4375 4.734375 -12.09375 C 3.722656 -12.75 2.847656 -13.617188 2.109375 -14.703125 C 1.378906 -15.796875 1.015625 -17.148438 1.015625 -18.765625 C 1.015625 -21.054688 1.789062 -22.960938 3.34375 -24.484375 C 4.90625 -26.003906 6.910156 -26.765625 9.359375 -26.765625 Z M 9.359375 -26.765625 "/></g></g></g></svg>